<svg xmlns="http://www.w3.org/2000/svg" xmlns:xlink="http://www.w3.org/1999/xlink" class="main-svg" width="990" height="789"><rect x="0" y="0" width="990" height="789" style="fill: rgb(255, 255, 255); fill-opacity: 1;"/><defs id="defs-167f08"><g class="clips"><clipPath class="axesclip" id="clip167f08x"><rect x="80" y="0" width="830" height="789"/></clipPath><clipPath class="axesclip" id="clip167f08y"><rect x="0" y="100" width="990" height="609"/></clipPath><clipPath class="axesclip" id="clip167f08xy"><rect x="80" y="100" width="830" height="609"/></clipPath></g></defs><g class="draglayer"><g transform="translate(80,100)"/></g><g class="subplot xy"><rect x="80" y="100" width="830" height="609" style="stroke-width: 0px; fill: rgb(255, 255, 255); fill-opacity: 1;"/><g transform="translate(80,100)"><path class="xgrid crisp" d="M0,0v609" transform="translate(157.67,0)" style="stroke: rgb(238, 238, 238); stroke-opacity: 1; stroke-width: 1px;"/><path class="xgrid crisp" d="M0,0v609" transform="translate(273.85,0)" style="stroke: rgb(238, 238, 238); stroke-opacity: 1; stroke-width: 1px;"/><path class="xgrid crisp" d="M0,0v609" transform="translate(390.02,0)" style="stroke: rgb(238, 238, 238); stroke-opacity: 1; stroke-width: 1px;"/><path class="xgrid crisp" d="M0,0v609" transform="translate(506.2,0)" style="stroke: rgb(238, 238, 238); stroke-opacity: 1; stroke-width: 1px;"/><path class="xgrid crisp" d="M0,0v609" transform="translate(622.37,0)" style="stroke: rgb(238, 238, 238); stroke-opacity: 1; stroke-width: 1px;"/><path class="xgrid crisp" d="M0,0v609" transform="translate(738.55,0)" style="stroke: rgb(238, 238, 238); stroke-opacity: 1; stroke-width: 1px;"/><path class="ygrid crisp" d="M0,0h830" transform="translate(0,494.23)" style="stroke: rgb(238, 238, 238); stroke-opacity: 1; stroke-width: 1px;"/><path class="ygrid crisp" d="M0,0h830" transform="translate(0,409.9)" style="stroke: rgb(238, 238, 238); stroke-opacity: 1; stroke-width: 1px;"/><path class="ygrid crisp" d="M0,0h830" transform="translate(0,325.58)" style="stroke: rgb(238, 238, 238); stroke-opacity: 1; stroke-width: 1px;"/><path class="ygrid crisp" d="M0,0h830" transform="translate(0,241.26)" style="stroke: rgb(238, 238, 238); stroke-opacity: 1; stroke-width: 1px;"/><path class="ygrid crisp" d="M0,0h830" transform="translate(0,156.93)" style="stroke: rgb(238, 238, 238); stroke-opacity: 1; stroke-width: 1px;"/><path class="ygrid crisp" d="M0,0h830" transform="translate(0,72.61)" style="stroke: rgb(238, 238, 238); stroke-opacity: 1; stroke-width: 1px;"/></g><g/><g transform="translate(80,100)"><path class="xzl zl crisp" d="M0,0v609" transform="translate(41.5,0)" style="stroke: rgb(68, 68, 68); stroke-opacity: 1; stroke-width: 1px;"/><path class="yzl zl crisp" d="M0,0h830" transform="translate(0,578.55)" style="stroke: rgb(68, 68, 68); stroke-opacity: 1; stroke-width: 1px;"/></g><g/><svg preserveAspectRatio="none" x="80" y="100" width="830" height="609" viewBox="0 0 830 609" style="fill: none;"><g class="maplayer"/><g class="barlayer"/><g class="errorlayer"><g class="errorbars"><g><path class="yerror" d="M41.5,578.55h0m-0,0V578.55m-0,0h0" style="stroke-width: 0.5px; stroke: rgb(56, 56, 102); stroke-opacity: 1;"/></g><g><path class="yerror" d="M54.05,283.42h0m-0,0V578.55m-0,0h0" style="stroke-width: 0.5px; stroke: rgb(56, 56, 102); stroke-opacity: 1;"/></g><g><path class="yerror" d="M59.16,215.96h0m-0,0V519.52m-0,0h0" style="stroke-width: 0.5px; stroke: rgb(56, 56, 102); stroke-opacity: 1;"/></g><g><path class="yerror" d="M64.97,199.1h0m-0,0V477.36m-0,0h0" style="stroke-width: 0.5px; stroke: rgb(56, 56, 102); stroke-opacity: 1;"/></g><g><path class="yerror" d="M65.9,123.21h0m-0,0V426.77m-0,0h0" style="stroke-width: 0.5px; stroke: rgb(56, 56, 102); stroke-opacity: 1;"/></g><g><path class="yerror" d="M74.73,169.58h0m-0,0V422.55m-0,0h0" style="stroke-width: 0.5px; stroke: rgb(56, 56, 102); stroke-opacity: 1;"/></g><g><path class="yerror" d="M89.6,253.91h0m-0,0V439.42m-0,0h0" style="stroke-width: 0.5px; stroke: rgb(56, 56, 102); stroke-opacity: 1;"/></g><g><path class="yerror" d="M90.29,165.37h0m-0,0V384.61m-0,0h0" style="stroke-width: 0.5px; stroke: rgb(56, 56, 102); stroke-opacity: 1;"/></g><g><path class="yerror" d="M91.92,140.07h0m-0,0V359.31m-0,0h0" style="stroke-width: 0.5px; stroke: rgb(56, 56, 102); stroke-opacity: 1;"/></g><g><path class="yerror" d="M93.08,64.18h0m-0,0V300.28m-0,0h0" style="stroke-width: 0.5px; stroke: rgb(56, 56, 102); stroke-opacity: 1;"/></g><g><path class="yerror" d="M93.31,30.45h0m-0,0V274.99m-0,0h0" style="stroke-width: 0.5px; stroke: rgb(56, 56, 102); stroke-opacity: 1;"/></g><g><path class="yerror" d="M100.52,55.75h0m-0,0V283.42m-0,0h0" style="stroke-width: 0.5px; stroke: rgb(56, 56, 102); stroke-opacity: 1;"/></g><g><path class="yerror" d="M113.06,118.99h0m-0,0V312.93m-0,0h0" style="stroke-width: 0.5px; stroke: rgb(56, 56, 102); stroke-opacity: 1;"/></g><g><path class="yerror" d="M122.59,148.5h0m-0,0V325.58m-0,0h0" style="stroke-width: 0.5px; stroke: rgb(56, 56, 102); stroke-opacity: 1;"/></g><g><path class="yerror" d="M124.22,131.64h0m-0,0V308.72m-0,0h0" style="stroke-width: 0.5px; stroke: rgb(56, 56, 102); stroke-opacity: 1;"/></g><g><path class="yerror" d="M126.07,118.99h0m-0,0V296.07m-0,0h0" style="stroke-width: 0.5px; stroke: rgb(56, 56, 102); stroke-opacity: 1;"/></g><g><path class="yerror" d="M132.12,123.21h0m-0,0V300.28m-0,0h0" style="stroke-width: 0.5px; stroke: rgb(56, 56, 102); stroke-opacity: 1;"/></g><g><path class="yerror" d="M137.23,127.42h0m-0,0V296.07m-0,0h0" style="stroke-width: 0.5px; stroke: rgb(56, 56, 102); stroke-opacity: 1;"/></g><g><path class="yerror" d="M141.64,123.21h0m-0,0V291.85m-0,0h0" style="stroke-width: 0.5px; stroke: rgb(56, 56, 102); stroke-opacity: 1;"/></g><g><path class="yerror" d="M145.82,127.42h0m-0,0V287.64m-0,0h0" style="stroke-width: 0.5px; stroke: rgb(56, 56, 102); stroke-opacity: 1;"/></g><g><path class="yerror" d="M153.03,135.85h0m-0,0V287.64m-0,0h0" style="stroke-width: 0.5px; stroke: rgb(56, 56, 102); stroke-opacity: 1;"/></g><g><path class="yerror" d="M163.95,161.15h0m-0,0V304.5m-0,0h0" style="stroke-width: 0.5px; stroke: rgb(56, 56, 102); stroke-opacity: 1;"/></g><g><path class="yerror" d="M164.41,144.29h0m-0,0V287.64m-0,0h0" style="stroke-width: 0.5px; stroke: rgb(56, 56, 102); stroke-opacity: 1;"/></g><g><path class="yerror" d="M167.2,140.07h0m-0,0V283.42m-0,0h0" style="stroke-width: 0.5px; stroke: rgb(56, 56, 102); stroke-opacity: 1;"/></g><g><path class="yerror" d="M168.36,123.21h0m-0,0V274.99m-0,0h0" style="stroke-width: 0.5px; stroke: rgb(56, 56, 102); stroke-opacity: 1;"/></g><g><path class="yerror" d="M168.83,110.56h0m-0,0V262.34m-0,0h0" style="stroke-width: 0.5px; stroke: rgb(56, 56, 102); stroke-opacity: 1;"/></g><g><path class="yerror" d="M182.3,144.29h0m-0,0V279.2m-0,0h0" style="stroke-width: 0.5px; stroke: rgb(56, 56, 102); stroke-opacity: 1;"/></g><g><path class="yerror" d="M186.02,140.07h0m-0,0V274.99m-0,0h0" style="stroke-width: 0.5px; stroke: rgb(56, 56, 102); stroke-opacity: 1;"/></g><g><path class="yerror" d="M187.18,131.64h0m-0,0V266.55m-0,0h0" style="stroke-width: 0.5px; stroke: rgb(56, 56, 102); stroke-opacity: 1;"/></g><g><path class="yerror" d="M197.41,144.29h0m-0,0V279.2m-0,0h0" style="stroke-width: 0.5px; stroke: rgb(56, 56, 102); stroke-opacity: 1;"/></g><g><path class="yerror" d="M208.33,161.15h0m-0,0V287.64m-0,0h0" style="stroke-width: 0.5px; stroke: rgb(56, 56, 102); stroke-opacity: 1;"/></g><g><path class="yerror" d="M242.48,220.18h0m-0,0V329.8m-0,0h0" style="stroke-width: 0.5px; stroke: rgb(56, 56, 102); stroke-opacity: 1;"/></g><g><path class="yerror" d="M246.2,220.18h0m-0,0V321.36m-0,0h0" style="stroke-width: 0.5px; stroke: rgb(56, 56, 102); stroke-opacity: 1;"/></g><g><path class="yerror" d="M258.75,228.61h0m-0,0V329.8m-0,0h0" style="stroke-width: 0.5px; stroke: rgb(56, 56, 102); stroke-opacity: 1;"/></g><g><path class="yerror" d="M272.69,245.47h0m-0,0V338.23m-0,0h0" style="stroke-width: 0.5px; stroke: rgb(56, 56, 102); stroke-opacity: 1;"/></g><g><path class="yerror" d="M277.1,241.26h0m-0,0V334.01m-0,0h0" style="stroke-width: 0.5px; stroke: rgb(56, 56, 102); stroke-opacity: 1;"/></g><g><path class="yerror" d="M302.89,266.55h0m-0,0V350.88m-0,0h0" style="stroke-width: 0.5px; stroke: rgb(56, 56, 102); stroke-opacity: 1;"/></g><g><path class="yerror" d="M314.51,270.77h0m-0,0V355.09m-0,0h0" style="stroke-width: 0.5px; stroke: rgb(56, 56, 102); stroke-opacity: 1;"/></g><g><path class="yerror" d="M317.76,270.77h0m-0,0V355.09m-0,0h0" style="stroke-width: 0.5px; stroke: rgb(56, 56, 102); stroke-opacity: 1;"/></g><g><path class="yerror" d="M322.41,266.55h0m-0,0V350.88m-0,0h0" style="stroke-width: 0.5px; stroke: rgb(56, 56, 102); stroke-opacity: 1;"/></g><g><path class="yerror" d="M335.89,270.77h0m-0,0V355.09m-0,0h0" style="stroke-width: 0.5px; stroke: rgb(56, 56, 102); stroke-opacity: 1;"/></g><g><path class="yerror" d="M340.07,262.34h0m-0,0V346.66m-0,0h0" style="stroke-width: 0.5px; stroke: rgb(56, 56, 102); stroke-opacity: 1;"/></g><g><path class="yerror" d="M350.99,270.77h0m-0,0V346.66m-0,0h0" style="stroke-width: 0.5px; stroke: rgb(56, 56, 102); stroke-opacity: 1;"/></g><g><path class="yerror" d="M353.78,262.34h0m-0,0V346.66m-0,0h0" style="stroke-width: 0.5px; stroke: rgb(56, 56, 102); stroke-opacity: 1;"/></g><g><path class="yerror" d="M363.77,270.77h0m-0,0V346.66m-0,0h0" style="stroke-width: 0.5px; stroke: rgb(56, 56, 102); stroke-opacity: 1;"/></g><g><path class="yerror" d="M365.16,266.55h0m-0,0V342.45m-0,0h0" style="stroke-width: 0.5px; stroke: rgb(56, 56, 102); stroke-opacity: 1;"/></g><g><path class="yerror" d="M365.39,262.34h0m-0,0V338.23m-0,0h0" style="stroke-width: 0.5px; stroke: rgb(56, 56, 102); stroke-opacity: 1;"/></g><g><path class="yerror" d="M382.36,270.77h0m-0,0V346.66m-0,0h0" style="stroke-width: 0.5px; stroke: rgb(56, 56, 102); stroke-opacity: 1;"/></g><g><path class="yerror" d="M397.92,274.99h0m-0,0V350.88m-0,0h0" style="stroke-width: 0.5px; stroke: rgb(56, 56, 102); stroke-opacity: 1;"/></g><g><path class="yerror" d="M399.32,270.77h0m-0,0V346.66m-0,0h0" style="stroke-width: 0.5px; stroke: rgb(56, 56, 102); stroke-opacity: 1;"/></g><g><path class="yerror" d="M422.32,287.64h0m-0,0V355.09m-0,0h0" style="stroke-width: 0.5px; stroke: rgb(56, 56, 102); stroke-opacity: 1;"/></g><g><path class="yerror" d="M435.56,291.85h0m-0,0V359.31m-0,0h0" style="stroke-width: 0.5px; stroke: rgb(56, 56, 102); stroke-opacity: 1;"/></g><g><path class="yerror" d="M438.58,287.64h0m-0,0V355.09m-0,0h0" style="stroke-width: 0.5px; stroke: rgb(56, 56, 102); stroke-opacity: 1;"/></g><g><path class="yerror" d="M438.82,279.2h0m-0,0V346.66m-0,0h0" style="stroke-width: 0.5px; stroke: rgb(56, 56, 102); stroke-opacity: 1;"/></g><g><path class="yerror" d="M446.72,279.2h0m-0,0V346.66m-0,0h0" style="stroke-width: 0.5px; stroke: rgb(56, 56, 102); stroke-opacity: 1;"/></g><g><path class="yerror" d="M453.22,279.2h0m-0,0V346.66m-0,0h0" style="stroke-width: 0.5px; stroke: rgb(56, 56, 102); stroke-opacity: 1;"/></g><g><path class="yerror" d="M465.77,283.42h0m-0,0V350.88m-0,0h0" style="stroke-width: 0.5px; stroke: rgb(56, 56, 102); stroke-opacity: 1;"/></g><g><path class="yerror" d="M466.23,279.2h0m-0,0V346.66m-0,0h0" style="stroke-width: 0.5px; stroke: rgb(56, 56, 102); stroke-opacity: 1;"/></g><g><path class="yerror" d="M467.16,274.99h0m-0,0V342.45m-0,0h0" style="stroke-width: 0.5px; stroke: rgb(56, 56, 102); stroke-opacity: 1;"/></g><g><path class="yerror" d="M498.53,291.85h0m-0,0V359.31m-0,0h0" style="stroke-width: 0.5px; stroke: rgb(56, 56, 102); stroke-opacity: 1;"/></g><g><path class="yerror" d="M507.59,291.85h0m-0,0V359.31m-0,0h0" style="stroke-width: 0.5px; stroke: rgb(56, 56, 102); stroke-opacity: 1;"/></g><g><path class="yerror" d="M509.91,287.64h0m-0,0V355.09m-0,0h0" style="stroke-width: 0.5px; stroke: rgb(56, 56, 102); stroke-opacity: 1;"/></g><g><path class="yerror" d="M512.47,283.42h0m-0,0V350.88m-0,0h0" style="stroke-width: 0.5px; stroke: rgb(56, 56, 102); stroke-opacity: 1;"/></g><g><path class="yerror" d="M517.12,279.2h0m-0,0V346.66m-0,0h0" style="stroke-width: 0.5px; stroke: rgb(56, 56, 102); stroke-opacity: 1;"/></g><g><path class="yerror" d="M527.34,283.42h0m-0,0V350.88m-0,0h0" style="stroke-width: 0.5px; stroke: rgb(56, 56, 102); stroke-opacity: 1;"/></g><g><path class="yerror" d="M531.06,287.64h0m-0,0V355.09m-0,0h0" style="stroke-width: 0.5px; stroke: rgb(56, 56, 102); stroke-opacity: 1;"/></g><g><path class="yerror" d="M540.82,287.64h0m-0,0V355.09m-0,0h0" style="stroke-width: 0.5px; stroke: rgb(56, 56, 102); stroke-opacity: 1;"/></g><g><path class="yerror" d="M548.72,283.42h0m-0,0V350.88m-0,0h0" style="stroke-width: 0.5px; stroke: rgb(56, 56, 102); stroke-opacity: 1;"/></g><g><path class="yerror" d="M549.88,279.2h0m-0,0V346.66m-0,0h0" style="stroke-width: 0.5px; stroke: rgb(56, 56, 102); stroke-opacity: 1;"/></g><g><path class="yerror" d="M551.5,274.99h0m-0,0V342.45m-0,0h0" style="stroke-width: 0.5px; stroke: rgb(56, 56, 102); stroke-opacity: 1;"/></g><g><path class="yerror" d="M556.38,287.64h0m-0,0V355.09m-0,0h0" style="stroke-width: 0.5px; stroke: rgb(56, 56, 102); stroke-opacity: 1;"/></g><g><path class="yerror" d="M567.3,304.5h0m-0,0V363.53m-0,0h0" style="stroke-width: 0.5px; stroke: rgb(56, 56, 102); stroke-opacity: 1;"/></g><g><path class="yerror" d="M576.6,304.5h0m-0,0V363.53m-0,0h0" style="stroke-width: 0.5px; stroke: rgb(56, 56, 102); stroke-opacity: 1;"/></g><g><path class="yerror" d="M585.43,304.5h0m-0,0V363.53m-0,0h0" style="stroke-width: 0.5px; stroke: rgb(56, 56, 102); stroke-opacity: 1;"/></g><g><path class="yerror" d="M601.46,308.72h0m-0,0V367.74m-0,0h0" style="stroke-width: 0.5px; stroke: rgb(56, 56, 102); stroke-opacity: 1;"/></g><g><path class="yerror" d="M605.64,312.93h0m-0,0V371.96m-0,0h0" style="stroke-width: 0.5px; stroke: rgb(56, 56, 102); stroke-opacity: 1;"/></g><g><path class="yerror" d="M611.68,317.15h0m-0,0V376.17m-0,0h0" style="stroke-width: 0.5px; stroke: rgb(56, 56, 102); stroke-opacity: 1;"/></g><g><path class="yerror" d="M629.57,325.58h0m-0,0V384.61m-0,0h0" style="stroke-width: 0.5px; stroke: rgb(56, 56, 102); stroke-opacity: 1;"/></g><g><path class="yerror" d="M630.97,321.36h0m-0,0V380.39m-0,0h0" style="stroke-width: 0.5px; stroke: rgb(56, 56, 102); stroke-opacity: 1;"/></g><g><path class="yerror" d="M639.8,329.8h0m-0,0V388.82m-0,0h0" style="stroke-width: 0.5px; stroke: rgb(56, 56, 102); stroke-opacity: 1;"/></g><g><path class="yerror" d="M661.17,342.45h0m-0,0V401.47m-0,0h0" style="stroke-width: 0.5px; stroke: rgb(56, 56, 102); stroke-opacity: 1;"/></g><g><path class="yerror" d="M661.87,338.23h0m-0,0V397.26m-0,0h0" style="stroke-width: 0.5px; stroke: rgb(56, 56, 102); stroke-opacity: 1;"/></g><g><path class="yerror" d="M666.28,338.23h0m-0,0V397.26m-0,0h0" style="stroke-width: 0.5px; stroke: rgb(56, 56, 102); stroke-opacity: 1;"/></g><g><path class="yerror" d="M684.87,338.23h0m-0,0V397.26m-0,0h0" style="stroke-width: 0.5px; stroke: rgb(56, 56, 102); stroke-opacity: 1;"/></g><g><path class="yerror" d="M687.89,334.01h0m-0,0V393.04m-0,0h0" style="stroke-width: 0.5px; stroke: rgb(56, 56, 102); stroke-opacity: 1;"/></g><g><path class="yerror" d="M688.13,329.8h0m-0,0V388.82m-0,0h0" style="stroke-width: 0.5px; stroke: rgb(56, 56, 102); stroke-opacity: 1;"/></g><g><path class="yerror" d="M701.6,325.58h0m-0,0V384.61m-0,0h0" style="stroke-width: 0.5px; stroke: rgb(56, 56, 102); stroke-opacity: 1;"/></g><g><path class="yerror" d="M720.65,329.8h0m-0,0V388.82m-0,0h0" style="stroke-width: 0.5px; stroke: rgb(56, 56, 102); stroke-opacity: 1;"/></g><g><path class="yerror" d="M728.09,329.8h0m-0,0V388.82m-0,0h0" style="stroke-width: 0.5px; stroke: rgb(56, 56, 102); stroke-opacity: 1;"/></g><g><path class="yerror" d="M728.79,325.58h0m-0,0V384.61m-0,0h0" style="stroke-width: 0.5px; stroke: rgb(56, 56, 102); stroke-opacity: 1;"/></g><g><path class="yerror" d="M788.27,346.66h0m-0,0V405.69m-0,0h0" style="stroke-width: 0.5px; stroke: rgb(56, 56, 102); stroke-opacity: 1;"/></g><g><path class="yerror" d="M788.5,342.45h0m-0,0V401.47m-0,0h0" style="stroke-width: 0.5px; stroke: rgb(56, 56, 102); stroke-opacity: 1;"/></g><g><path class="yerror" d="M788.5,342.45h0m-0,0V401.47m-0,0h0" style="stroke-width: 0.5px; stroke: rgb(56, 56, 102); stroke-opacity: 1;"/></g><g><path class="yerror" d="M788.5,342.45h0m-0,0V401.47m-0,0h0" style="stroke-width: 0.5px; stroke: rgb(56, 56, 102); stroke-opacity: 1;"/></g></g></g><g class="boxlayer"/><g class="scatterlayer"><g class="trace scatter" style="stroke-miterlimit: 2; opacity: 1;"><path class="js-line" d="M41.5,578.55L59.16,367.74L64.97,338.23L65.9,274.99L74.73,296.07L89.6,346.66L90.29,274.99L91.92,249.69L93.08,182.23L93.31,152.72L100.52,169.58L113.06,215.96L122.59,237.04L126.07,207.53L132.12,211.74L137.23,211.74L141.64,207.53L145.82,207.53L153.03,211.74L163.95,232.83L164.41,215.96L167.2,211.74L168.36,199.1L168.83,186.45L182.3,211.74L186.02,207.53L187.18,199.1L208.33,224.39L242.48,274.99L246.2,270.77L258.75,279.2L272.69,291.85L277.1,287.64L302.89,308.72L314.51,312.93L317.76,312.93L322.41,308.72L335.89,312.93L340.07,304.5L350.99,308.72L353.78,304.5L363.77,308.72L365.16,304.5L365.39,300.28L382.36,308.72L397.92,312.93L399.32,308.72L422.32,321.36L435.56,325.58L438.58,321.36L438.82,312.93L453.22,312.93L465.77,317.15L467.16,308.72L498.53,325.58L507.59,325.58L509.91,321.36L512.47,317.15L517.12,312.93L527.34,317.15L531.06,321.36L540.82,321.36L548.72,317.15L551.5,308.72L556.38,321.36L567.3,334.01L576.6,334.01L585.43,334.01L601.46,338.23L605.64,342.45L611.68,346.66L629.57,355.09L630.97,350.88L639.8,359.31L661.17,371.96L661.87,367.74L666.28,367.74L684.87,367.74L687.89,363.53L688.13,359.31L701.6,355.09L720.65,359.31L728.09,359.31L728.79,355.09L788.27,376.17L788.5,371.96L788.5,371.96" style="fill: none; stroke: rgb(56, 56, 102); stroke-opacity: 1; stroke-width: 2px;"/></g></g></svg><g/><path class="crisp" transform="translate(80,100)" d="M-1,609.5h832" style="fill: none; stroke-width: 1px; stroke: rgb(0, 0, 0); stroke-opacity: 0;"/><path class="crisp" transform="translate(80,100)" d="M-0.5,-1v610" stroke-width="1px" style="fill: none; stroke: rgb(0, 0, 0); stroke-opacity: 0;"/><g/><g transform="translate(80,100)"><g class="xtick" data-bb="7143"><text text-anchor="middle" x="0" y="623" transform="translate(41.5,0)" style="font-family: 'Open sans', verdana, arial, sans-serif; font-size: 12px; fill: rgb(68, 68, 68); fill-opacity: 1; visibility: visible; white-space: pre;" data-bb="7135">0</text></g><g class="xtick" data-bb="7144"><text text-anchor="middle" x="0" y="623" transform="translate(157.67,0)" style="font-family: 'Open sans', verdana, arial, sans-serif; font-size: 12px; fill: rgb(68, 68, 68); fill-opacity: 1; visibility: visible; white-space: pre;" data-bb="7136">5</text></g><g class="xtick" data-bb="7145"><text text-anchor="middle" x="0" y="623" transform="translate(273.85,0)" style="font-family: 'Open sans', verdana, arial, sans-serif; font-size: 12px; fill: rgb(68, 68, 68); fill-opacity: 1; visibility: visible; white-space: pre;" data-bb="7137">10</text></g><g class="xtick" data-bb="7146"><text text-anchor="middle" x="0" y="623" transform="translate(390.02,0)" style="font-family: 'Open sans', verdana, arial, sans-serif; font-size: 12px; fill: rgb(68, 68, 68); fill-opacity: 1; visibility: visible; white-space: pre;" data-bb="7138">15</text></g><g class="xtick" data-bb="7147"><text text-anchor="middle" x="0" y="623" transform="translate(506.2,0)" style="font-family: 'Open sans', verdana, arial, sans-serif; font-size: 12px; fill: rgb(68, 68, 68); fill-opacity: 1; visibility: visible; white-space: pre;" data-bb="7139">20</text></g><g class="xtick" data-bb="7148"><text text-anchor="middle" x="0" y="623" transform="translate(622.37,0)" style="font-family: 'Open sans', verdana, arial, sans-serif; font-size: 12px; fill: rgb(68, 68, 68); fill-opacity: 1; visibility: visible; white-space: pre;" data-bb="7140">25</text></g><g class="xtick" data-bb="7149"><text text-anchor="middle" x="0" y="623" transform="translate(738.55,0)" style="font-family: 'Open sans', verdana, arial, sans-serif; font-size: 12px; fill: rgb(68, 68, 68); fill-opacity: 1; visibility: visible; white-space: pre;" data-bb="7141">30</text></g></g><g transform="translate(80,100)"><g class="ytick" data-bb="7151"><text text-anchor="end" x="-2" y="6" transform="translate(0,578.55)" style="font-family: 'Open sans', verdana, arial, sans-serif; font-size: 12px; fill: rgb(68, 68, 68); fill-opacity: 1; visibility: visible; white-space: pre;">0</text></g><g class="ytick" data-bb="7152"><text text-anchor="end" x="-2" y="6" transform="translate(0,494.23)" style="font-family: 'Open sans', verdana, arial, sans-serif; font-size: 12px; fill: rgb(68, 68, 68); fill-opacity: 1; visibility: visible; white-space: pre;">0.02</text></g><g class="ytick" data-bb="7153"><text text-anchor="end" x="-2" y="6" transform="translate(0,409.9)" style="font-family: 'Open sans', verdana, arial, sans-serif; font-size: 12px; fill: rgb(68, 68, 68); fill-opacity: 1; visibility: visible; white-space: pre;">0.04</text></g><g class="ytick" data-bb="7154"><text text-anchor="end" x="-2" y="6" transform="translate(0,325.58)" style="font-family: 'Open sans', verdana, arial, sans-serif; font-size: 12px; fill: rgb(68, 68, 68); fill-opacity: 1; visibility: visible; white-space: pre;">0.06</text></g><g class="ytick" data-bb="7155"><text text-anchor="end" x="-2" y="6" transform="translate(0,241.26)" style="font-family: 'Open sans', verdana, arial, sans-serif; font-size: 12px; fill: rgb(68, 68, 68); fill-opacity: 1; visibility: visible; white-space: pre;">0.08</text></g><g class="ytick" data-bb="7156"><text text-anchor="end" x="-2" y="6" transform="translate(0,156.93)" style="font-family: 'Open sans', verdana, arial, sans-serif; font-size: 12px; fill: rgb(68, 68, 68); fill-opacity: 1; visibility: visible; white-space: pre;">0.1</text></g><g class="ytick" data-bb="7157"><text text-anchor="end" x="-2" y="6" transform="translate(0,72.61)" style="font-family: 'Open sans', verdana, arial, sans-serif; font-size: 12px; fill: rgb(68, 68, 68); fill-opacity: 1; visibility: visible; white-space: pre;">0.12</text></g></g><g/></g><g class="shapelayer"/><g class="pielayer"/><g class="glimages"/><g class="geoimages"/><text class="js-plot-link-container" y="780" text-anchor="end" x="983" style="font-family: 'Open Sans', Arial, sans-serif; font-size: 12px; fill: rgb(68, 68, 68); pointer-events: all;"><tspan class="js-link-to-tool"/><tspan class="js-link-spacer"/><tspan class="js-sourcelinks"/></text><g class="infolayer"><g class="g-gtitle"><text class="gtitle" x="495" y="50" text-anchor="middle" style="font-family: 'Open sans', verdana, arial, sans-serif; font-size: 17px; fill: rgb(68, 68, 68); opacity: 1; font-weight: normal; white-space: pre; visibility: visible;">Golfech, 1 Km north of the power plant - 6th December 2015</text></g><g class="g-xtitle" data-bb="7142"><text class="xtitle" x="495" y="761" text-anchor="middle" style="font-family: 'Open sans', verdana, arial, sans-serif; font-size: 14px; fill: rgb(68, 68, 68); opacity: 1; font-weight: normal; white-space: pre; visibility: visible;">time (min)</text></g><g class="g-ytitle" data-bb="7150"><text class="ytitle" transform="rotate(-90,42,404.5) translate(0, 0)" x="42" y="404.5" text-anchor="middle" style="font-family: 'Open sans', verdana, arial, sans-serif; font-size: 14px; fill: rgb(68, 68, 68); opacity: 1; font-weight: normal; white-space: pre; visibility: visible;">uSv/h</text></g></g></svg>